<?xml version="1.0" standalone="no"?>
<!DOCTYPE svg PUBLIC "-//W3C//DTD SVG 20010904//EN"
 "http://www.w3.org/TR/2001/REC-SVG-20010904/DTD/svg10.dtd">
<svg version="1.0" xmlns="http://www.w3.org/2000/svg"
 width="480.000000pt" height="270.000000pt" viewBox="0 0 480.000000 270.000000"
 preserveAspectRatio="xMidYMid meet">

<g transform="translate(0.000000,270.000000) scale(0.100000,-0.100000)"
fill="#000000" stroke="none">
<path d="M805 1696 c-102 -26 -189 -94 -234 -183 -64 -128 -36 -299 67 -401
165 -165 453 -118 555 92 34 69 35 88 1 23 -71 -137 -234 -210 -361 -162 -60
23 -128 86 -161 150 -24 44 -27 62 -27 145 0 84 3 101 27 146 69 131 186 186
313 150 70 -21 143 -85 180 -159 l25 -51 0 75 0 74 -63 35 c-122 69 -228 90
-322 66z"/>
<path d="M3593 1648 c19 -24 78 -105 131 -180 l95 -138 -71 -87 c-40 -49 -98
-118 -131 -155 l-59 -68 30 0 c24 0 34 7 52 38 23 39 161 212 185 232 11 9 29
-11 90 -97 42 -59 84 -123 93 -140 15 -32 17 -33 85 -33 l69 0 -34 42 c-81
103 -227 323 -220 332 25 34 185 227 215 259 l35 37 -32 0 c-25 0 -35 -7 -49
-33 -11 -17 -58 -80 -105 -140 l-87 -107 -20 25 c-11 14 -54 76 -95 139 l-75
114 -68 1 -68 1 34 -42z"/>
<path d="M1435 1455 c-5 -2 -36 -6 -67 -10 -32 -4 -58 -11 -58 -16 0 -6 12
-25 26 -44 l25 -33 42 27 c107 71 207 67 207 -7 0 -62 -64 -98 -151 -86 -115
16 -190 -83 -145 -190 25 -60 89 -87 163 -67 44 12 110 72 119 108 11 41 24
24 24 -31 0 -76 6 -86 49 -86 l36 0 -3 162 c-2 90 -8 180 -13 201 -14 53 -66
77 -169 76 -41 0 -79 -2 -85 -4z m156 -261 c-33 -95 -100 -143 -166 -118 -25
10 -47 62 -40 93 10 45 47 72 122 87 37 8 75 22 83 30 13 13 15 12 18 -9 2
-14 -6 -51 -17 -83z"/>
<path d="M1801 1428 c5 -18 9 -103 9 -188 0 -85 -4 -170 -9 -188 l-10 -32 59
0 59 0 -10 32 c-5 18 -9 94 -9 170 l0 136 45 17 c30 12 62 16 100 13 l55 -5 0
40 c0 39 0 39 -32 33 -18 -4 -62 -20 -97 -36 -35 -17 -64 -30 -66 -30 -2 0 -6
16 -9 35 -7 34 -9 35 -51 35 l-44 0 10 -32z"/>
<path d="M2316 1446 c-60 -22 -114 -82 -133 -145 -24 -83 -6 -149 57 -211 87
-88 206 -91 297 -7 24 22 43 48 43 59 0 16 -6 14 -33 -15 -43 -46 -103 -64
-158 -48 -79 24 -55 70 49 91 76 16 109 34 132 73 25 40 25 61 1 114 -36 79
-163 123 -255 89z m100 -47 c51 -24 84 -72 84 -121 0 -43 -10 -51 -91 -83 -34
-14 -73 -34 -85 -46 l-22 -21 -28 48 c-38 64 -44 145 -14 192 34 55 86 65 156
31z"/>
<path d="M2819 1446 c-59 -21 -96 -53 -123 -108 -108 -217 165 -421 340 -254
24 23 44 51 44 61 0 15 -7 12 -37 -17 -60 -58 -117 -72 -173 -43 -59 31 -29
63 85 91 95 24 125 54 125 125 0 47 -3 55 -43 94 -61 61 -139 80 -218 51z m87
-42 c51 -24 94 -78 94 -117 0 -46 -15 -62 -89 -91 -36 -15 -75 -35 -87 -47
l-22 -20 -19 28 c-32 48 -43 82 -43 139 0 50 3 59 34 90 39 39 77 44 132 18z"/>
<path d="M3175 1240 l0 -220 50 0 50 0 -3 168 -3 168 40 19 c31 13 55 17 101
12 l60 -5 0 40 0 40 -37 -6 c-21 -4 -66 -20 -99 -36 -34 -17 -64 -30 -67 -30
-3 0 -7 15 -9 33 -3 30 -6 32 -43 35 l-40 3 0 -221z"/>
</g>
</svg>
