<?xml version="1.0" standalone="no"?>
<!DOCTYPE svg PUBLIC "-//W3C//DTD SVG 20010904//EN"
 "http://www.w3.org/TR/2001/REC-SVG-20010904/DTD/svg10.dtd">
<svg version="1.0" xmlns="http://www.w3.org/2000/svg"
 width="480.000000pt" height="270.000000pt" viewBox="0 0 480.000000 270.000000"
 preserveAspectRatio="xMidYMid meet">

<g transform="translate(0.000000,270.000000) scale(0.100000,-0.100000)"
fill="#000000" stroke="none">
<path d="M3582 1659 c75 -92 229 -321 225 -333 -8 -20 -146 -187 -205 -248
l-56 -58 37 0 c32 0 40 5 64 43 14 23 62 87 106 141 l80 99 21 -26 c12 -15 55
-78 96 -141 l75 -114 68 -1 c75 -1 75 -3 22 64 -44 56 -195 272 -201 290 -7
16 113 172 200 263 l50 52 -34 0 c-31 0 -39 -6 -66 -48 -39 -58 -173 -222
-182 -222 -4 0 -47 61 -97 135 l-90 135 -41 0 c-23 0 -56 3 -75 7 l-33 6 36
-44z"/>
</g>
</svg>
